<mxfile host="app.diagrams.net" modified="2021-03-16T15:13:41.839Z" agent="5.0 (Windows)" etag="v4IAsQFuSzc28ID4fwJo" version="14.4.8" type="gitlab">
  <diagram id="C5RBs43oDa-KdzZeNtuy" name="Page-1">
    <mxGraphModel dx="1221" dy="691" grid="1" gridSize="10" guides="1" tooltips="1" connect="1" arrows="1" fold="1" page="1" pageScale="1" pageWidth="827" pageHeight="1169" math="0" shadow="0">
      <root>
        <mxCell id="WIyWlLk6GJQsqaUBKTNV-0" />
        <mxCell id="WIyWlLk6GJQsqaUBKTNV-1" parent="WIyWlLk6GJQsqaUBKTNV-0" />
        <mxCell id="zkfFHV4jXpPFQw0GAbJ--0" value="ScenarioInstance" style="swimlane;fontStyle=0;align=center;verticalAlign=top;childLayout=stackLayout;horizontal=1;startSize=26;horizontalStack=0;resizeParent=1;resizeLast=0;collapsible=1;marginBottom=0;rounded=0;shadow=0;strokeWidth=1;" parent="WIyWlLk6GJQsqaUBKTNV-1" vertex="1">
          <mxGeometry x="190" y="40" width="160" height="170" as="geometry">
            <mxRectangle x="230" y="140" width="160" height="26" as="alternateBounds" />
          </mxGeometry>
        </mxCell>
        <mxCell id="zkfFHV4jXpPFQw0GAbJ--1" value="+start_time" style="text;align=left;verticalAlign=top;spacingLeft=4;spacingRight=4;overflow=hidden;rotatable=0;points=[[0,0.5],[1,0.5]];portConstraint=eastwest;" parent="zkfFHV4jXpPFQw0GAbJ--0" vertex="1">
          <mxGeometry y="26" width="160" height="26" as="geometry" />
        </mxCell>
        <mxCell id="zkfFHV4jXpPFQw0GAbJ--2" value="+duration" style="text;align=left;verticalAlign=top;spacingLeft=4;spacingRight=4;overflow=hidden;rotatable=0;points=[[0,0.5],[1,0.5]];portConstraint=eastwest;rounded=0;shadow=0;html=0;" parent="zkfFHV4jXpPFQw0GAbJ--0" vertex="1">
          <mxGeometry y="52" width="160" height="26" as="geometry" />
        </mxCell>
        <mxCell id="zkfFHV4jXpPFQw0GAbJ--3" value="+state [in progress, &#xa;closed, aborted]" style="text;align=left;verticalAlign=top;spacingLeft=4;spacingRight=4;overflow=hidden;rotatable=0;points=[[0,0.5],[1,0.5]];portConstraint=eastwest;rounded=0;shadow=0;html=0;" parent="zkfFHV4jXpPFQw0GAbJ--0" vertex="1">
          <mxGeometry y="78" width="160" height="42" as="geometry" />
        </mxCell>
        <mxCell id="zkfFHV4jXpPFQw0GAbJ--4" value="" style="line;html=1;strokeWidth=1;align=left;verticalAlign=middle;spacingTop=-1;spacingLeft=3;spacingRight=3;rotatable=0;labelPosition=right;points=[];portConstraint=eastwest;" parent="zkfFHV4jXpPFQw0GAbJ--0" vertex="1">
          <mxGeometry y="120" width="160" height="8" as="geometry" />
        </mxCell>
        <mxCell id="zkfFHV4jXpPFQw0GAbJ--5" value="Purchase Parking Pass" style="text;align=left;verticalAlign=top;spacingLeft=4;spacingRight=4;overflow=hidden;rotatable=0;points=[[0,0.5],[1,0.5]];portConstraint=eastwest;" parent="zkfFHV4jXpPFQw0GAbJ--0" vertex="1">
          <mxGeometry y="128" width="160" height="26" as="geometry" />
        </mxCell>
        <mxCell id="zkfFHV4jXpPFQw0GAbJ--6" value="Student" style="swimlane;fontStyle=0;align=center;verticalAlign=top;childLayout=stackLayout;horizontal=1;startSize=26;horizontalStack=0;resizeParent=1;resizeLast=0;collapsible=1;marginBottom=0;rounded=0;shadow=0;strokeWidth=1;" parent="WIyWlLk6GJQsqaUBKTNV-1" vertex="1">
          <mxGeometry x="120" y="360" width="160" height="138" as="geometry">
            <mxRectangle x="130" y="380" width="160" height="26" as="alternateBounds" />
          </mxGeometry>
        </mxCell>
        <mxCell id="zkfFHV4jXpPFQw0GAbJ--7" value="Student Number" style="text;align=left;verticalAlign=top;spacingLeft=4;spacingRight=4;overflow=hidden;rotatable=0;points=[[0,0.5],[1,0.5]];portConstraint=eastwest;" parent="zkfFHV4jXpPFQw0GAbJ--6" vertex="1">
          <mxGeometry y="26" width="160" height="26" as="geometry" />
        </mxCell>
        <mxCell id="zkfFHV4jXpPFQw0GAbJ--8" value="Average Mark" style="text;align=left;verticalAlign=top;spacingLeft=4;spacingRight=4;overflow=hidden;rotatable=0;points=[[0,0.5],[1,0.5]];portConstraint=eastwest;rounded=0;shadow=0;html=0;" parent="zkfFHV4jXpPFQw0GAbJ--6" vertex="1">
          <mxGeometry y="52" width="160" height="26" as="geometry" />
        </mxCell>
        <mxCell id="zkfFHV4jXpPFQw0GAbJ--9" value="" style="line;html=1;strokeWidth=1;align=left;verticalAlign=middle;spacingTop=-1;spacingLeft=3;spacingRight=3;rotatable=0;labelPosition=right;points=[];portConstraint=eastwest;" parent="zkfFHV4jXpPFQw0GAbJ--6" vertex="1">
          <mxGeometry y="78" width="160" height="8" as="geometry" />
        </mxCell>
        <mxCell id="zkfFHV4jXpPFQw0GAbJ--10" value="Is Eligibale To Enroll" style="text;align=left;verticalAlign=top;spacingLeft=4;spacingRight=4;overflow=hidden;rotatable=0;points=[[0,0.5],[1,0.5]];portConstraint=eastwest;fontStyle=4" parent="zkfFHV4jXpPFQw0GAbJ--6" vertex="1">
          <mxGeometry y="86" width="160" height="26" as="geometry" />
        </mxCell>
        <mxCell id="zkfFHV4jXpPFQw0GAbJ--11" value="Get Seminars Taken" style="text;align=left;verticalAlign=top;spacingLeft=4;spacingRight=4;overflow=hidden;rotatable=0;points=[[0,0.5],[1,0.5]];portConstraint=eastwest;" parent="zkfFHV4jXpPFQw0GAbJ--6" vertex="1">
          <mxGeometry y="112" width="160" height="26" as="geometry" />
        </mxCell>
        <mxCell id="zkfFHV4jXpPFQw0GAbJ--12" value="" style="endArrow=block;endSize=10;endFill=0;shadow=0;strokeWidth=1;rounded=0;edgeStyle=elbowEdgeStyle;elbow=vertical;" parent="WIyWlLk6GJQsqaUBKTNV-1" source="zkfFHV4jXpPFQw0GAbJ--6" target="zkfFHV4jXpPFQw0GAbJ--0" edge="1">
          <mxGeometry width="160" relative="1" as="geometry">
            <mxPoint x="200" y="203" as="sourcePoint" />
            <mxPoint x="200" y="203" as="targetPoint" />
          </mxGeometry>
        </mxCell>
        <mxCell id="zkfFHV4jXpPFQw0GAbJ--13" value="Professor" style="swimlane;fontStyle=0;align=center;verticalAlign=top;childLayout=stackLayout;horizontal=1;startSize=26;horizontalStack=0;resizeParent=1;resizeLast=0;collapsible=1;marginBottom=0;rounded=0;shadow=0;strokeWidth=1;" parent="WIyWlLk6GJQsqaUBKTNV-1" vertex="1">
          <mxGeometry x="330" y="360" width="160" height="70" as="geometry">
            <mxRectangle x="340" y="380" width="170" height="26" as="alternateBounds" />
          </mxGeometry>
        </mxCell>
        <mxCell id="zkfFHV4jXpPFQw0GAbJ--14" value="Salary" style="text;align=left;verticalAlign=top;spacingLeft=4;spacingRight=4;overflow=hidden;rotatable=0;points=[[0,0.5],[1,0.5]];portConstraint=eastwest;" parent="zkfFHV4jXpPFQw0GAbJ--13" vertex="1">
          <mxGeometry y="26" width="160" height="26" as="geometry" />
        </mxCell>
        <mxCell id="zkfFHV4jXpPFQw0GAbJ--15" value="" style="line;html=1;strokeWidth=1;align=left;verticalAlign=middle;spacingTop=-1;spacingLeft=3;spacingRight=3;rotatable=0;labelPosition=right;points=[];portConstraint=eastwest;" parent="zkfFHV4jXpPFQw0GAbJ--13" vertex="1">
          <mxGeometry y="52" width="160" height="8" as="geometry" />
        </mxCell>
        <mxCell id="zkfFHV4jXpPFQw0GAbJ--16" value="" style="endArrow=block;endSize=10;endFill=0;shadow=0;strokeWidth=1;rounded=0;edgeStyle=elbowEdgeStyle;elbow=vertical;" parent="WIyWlLk6GJQsqaUBKTNV-1" source="zkfFHV4jXpPFQw0GAbJ--13" target="zkfFHV4jXpPFQw0GAbJ--0" edge="1">
          <mxGeometry width="160" relative="1" as="geometry">
            <mxPoint x="210" y="373" as="sourcePoint" />
            <mxPoint x="310" y="271" as="targetPoint" />
          </mxGeometry>
        </mxCell>
        <mxCell id="zkfFHV4jXpPFQw0GAbJ--17" value="Scenario" style="swimlane;fontStyle=0;align=center;verticalAlign=top;childLayout=stackLayout;horizontal=1;startSize=26;horizontalStack=0;resizeParent=1;resizeLast=0;collapsible=1;marginBottom=0;rounded=0;shadow=0;strokeWidth=1;" parent="WIyWlLk6GJQsqaUBKTNV-1" vertex="1">
          <mxGeometry x="620" y="40" width="160" height="120" as="geometry">
            <mxRectangle x="550" y="140" width="160" height="26" as="alternateBounds" />
          </mxGeometry>
        </mxCell>
        <mxCell id="zkfFHV4jXpPFQw0GAbJ--18" value="+title" style="text;align=left;verticalAlign=top;spacingLeft=4;spacingRight=4;overflow=hidden;rotatable=0;points=[[0,0.5],[1,0.5]];portConstraint=eastwest;" parent="zkfFHV4jXpPFQw0GAbJ--17" vertex="1">
          <mxGeometry y="26" width="160" height="26" as="geometry" />
        </mxCell>
        <mxCell id="zkfFHV4jXpPFQw0GAbJ--19" value="+description" style="text;align=left;verticalAlign=top;spacingLeft=4;spacingRight=4;overflow=hidden;rotatable=0;points=[[0,0.5],[1,0.5]];portConstraint=eastwest;rounded=0;shadow=0;html=0;" parent="zkfFHV4jXpPFQw0GAbJ--17" vertex="1">
          <mxGeometry y="52" width="160" height="26" as="geometry" />
        </mxCell>
        <mxCell id="zkfFHV4jXpPFQw0GAbJ--22" value="+image" style="text;align=left;verticalAlign=top;spacingLeft=4;spacingRight=4;overflow=hidden;rotatable=0;points=[[0,0.5],[1,0.5]];portConstraint=eastwest;rounded=0;shadow=0;html=0;" parent="zkfFHV4jXpPFQw0GAbJ--17" vertex="1">
          <mxGeometry y="78" width="160" height="26" as="geometry" />
        </mxCell>
        <mxCell id="zkfFHV4jXpPFQw0GAbJ--23" value="" style="line;html=1;strokeWidth=1;align=left;verticalAlign=middle;spacingTop=-1;spacingLeft=3;spacingRight=3;rotatable=0;labelPosition=right;points=[];portConstraint=eastwest;" parent="zkfFHV4jXpPFQw0GAbJ--17" vertex="1">
          <mxGeometry y="104" width="160" height="8" as="geometry" />
        </mxCell>
        <mxCell id="42y34xTDk8OJhlG2N7WC-1" value="Inject" style="swimlane;fontStyle=0;align=center;verticalAlign=top;childLayout=stackLayout;horizontal=1;startSize=26;horizontalStack=0;resizeParent=1;resizeLast=0;collapsible=1;marginBottom=0;rounded=0;shadow=0;strokeWidth=1;" vertex="1" parent="WIyWlLk6GJQsqaUBKTNV-1">
          <mxGeometry x="620" y="430" width="160" height="138" as="geometry">
            <mxRectangle x="550" y="140" width="160" height="26" as="alternateBounds" />
          </mxGeometry>
        </mxCell>
        <mxCell id="42y34xTDk8OJhlG2N7WC-3" value="+description" style="text;align=left;verticalAlign=top;spacingLeft=4;spacingRight=4;overflow=hidden;rotatable=0;points=[[0,0.5],[1,0.5]];portConstraint=eastwest;rounded=0;shadow=0;html=0;" vertex="1" parent="42y34xTDk8OJhlG2N7WC-1">
          <mxGeometry y="26" width="160" height="26" as="geometry" />
        </mxCell>
        <mxCell id="42y34xTDk8OJhlG2N7WC-4" value="+image" style="text;align=left;verticalAlign=top;spacingLeft=4;spacingRight=4;overflow=hidden;rotatable=0;points=[[0,0.5],[1,0.5]];portConstraint=eastwest;rounded=0;shadow=0;html=0;" vertex="1" parent="42y34xTDk8OJhlG2N7WC-1">
          <mxGeometry y="52" width="160" height="26" as="geometry" />
        </mxCell>
        <mxCell id="42y34xTDk8OJhlG2N7WC-5" value="" style="line;html=1;strokeWidth=1;align=left;verticalAlign=middle;spacingTop=-1;spacingLeft=3;spacingRight=3;rotatable=0;labelPosition=right;points=[];portConstraint=eastwest;" vertex="1" parent="42y34xTDk8OJhlG2N7WC-1">
          <mxGeometry y="78" width="160" height="8" as="geometry" />
        </mxCell>
        <mxCell id="42y34xTDk8OJhlG2N7WC-24" value="+display_inject()" style="text;align=left;verticalAlign=top;spacingLeft=4;spacingRight=4;overflow=hidden;rotatable=0;points=[[0,0.5],[1,0.5]];portConstraint=eastwest;rounded=0;shadow=0;html=0;" vertex="1" parent="42y34xTDk8OJhlG2N7WC-1">
          <mxGeometry y="86" width="160" height="26" as="geometry" />
        </mxCell>
        <mxCell id="42y34xTDk8OJhlG2N7WC-6" value="1" style="endArrow=open;html=1;endSize=12;startArrow=diamondThin;startSize=14;startFill=1;edgeStyle=orthogonalEdgeStyle;align=left;verticalAlign=bottom;exitX=0.5;exitY=1;exitDx=0;exitDy=0;rounded=0;" edge="1" parent="WIyWlLk6GJQsqaUBKTNV-1" source="zkfFHV4jXpPFQw0GAbJ--17" target="42y34xTDk8OJhlG2N7WC-56">
          <mxGeometry x="-0.4286" y="10" relative="1" as="geometry">
            <mxPoint x="690" y="150" as="sourcePoint" />
            <mxPoint x="850" y="150" as="targetPoint" />
            <mxPoint as="offset" />
          </mxGeometry>
        </mxCell>
        <mxCell id="42y34xTDk8OJhlG2N7WC-7" value="1..*" style="edgeLabel;html=1;align=center;verticalAlign=middle;resizable=0;points=[];" vertex="1" connectable="0" parent="42y34xTDk8OJhlG2N7WC-6">
          <mxGeometry x="0.2222" y="1" relative="1" as="geometry">
            <mxPoint x="9" y="15" as="offset" />
          </mxGeometry>
        </mxCell>
        <mxCell id="42y34xTDk8OJhlG2N7WC-8" value="Transition" style="swimlane;fontStyle=0;align=center;verticalAlign=top;childLayout=stackLayout;horizontal=1;startSize=26;horizontalStack=0;resizeParent=1;resizeLast=0;collapsible=1;marginBottom=0;rounded=0;shadow=0;strokeWidth=1;" vertex="1" parent="WIyWlLk6GJQsqaUBKTNV-1">
          <mxGeometry x="920" y="482" width="160" height="86" as="geometry">
            <mxRectangle x="550" y="140" width="160" height="26" as="alternateBounds" />
          </mxGeometry>
        </mxCell>
        <mxCell id="42y34xTDk8OJhlG2N7WC-12" value="" style="line;html=1;strokeWidth=1;align=left;verticalAlign=middle;spacingTop=-1;spacingLeft=3;spacingRight=3;rotatable=0;labelPosition=right;points=[];portConstraint=eastwest;" vertex="1" parent="42y34xTDk8OJhlG2N7WC-8">
          <mxGeometry y="26" width="160" height="8" as="geometry" />
        </mxCell>
        <mxCell id="42y34xTDk8OJhlG2N7WC-44" value="+perform_transition()" style="text;align=left;verticalAlign=top;spacingLeft=4;spacingRight=4;overflow=hidden;rotatable=0;points=[[0,0.5],[1,0.5]];portConstraint=eastwest;" vertex="1" parent="42y34xTDk8OJhlG2N7WC-8">
          <mxGeometry y="34" width="160" height="26" as="geometry" />
        </mxCell>
        <mxCell id="42y34xTDk8OJhlG2N7WC-13" value="1" style="endArrow=open;html=1;endSize=12;startArrow=diamondThin;startSize=14;startFill=1;edgeStyle=orthogonalEdgeStyle;align=left;verticalAlign=bottom;exitX=1;exitY=0.101;exitDx=0;exitDy=0;exitPerimeter=0;entryX=0.25;entryY=0;entryDx=0;entryDy=0;rounded=0;" edge="1" parent="WIyWlLk6GJQsqaUBKTNV-1" source="42y34xTDk8OJhlG2N7WC-1" target="42y34xTDk8OJhlG2N7WC-8">
          <mxGeometry x="-0.7745" relative="1" as="geometry">
            <mxPoint x="754" y="430" as="sourcePoint" />
            <mxPoint x="900" y="400" as="targetPoint" />
            <mxPoint as="offset" />
            <Array as="points">
              <mxPoint x="960" y="444" />
            </Array>
          </mxGeometry>
        </mxCell>
        <mxCell id="42y34xTDk8OJhlG2N7WC-14" value="0..*" style="edgeLabel;html=1;align=center;verticalAlign=middle;resizable=0;points=[];" vertex="1" connectable="0" parent="42y34xTDk8OJhlG2N7WC-13">
          <mxGeometry x="0.2222" y="1" relative="1" as="geometry">
            <mxPoint x="47" y="13.09" as="offset" />
          </mxGeometry>
        </mxCell>
        <mxCell id="42y34xTDk8OJhlG2N7WC-15" value="1" style="endArrow=open;html=1;endSize=12;startArrow=diamondThin;startSize=14;startFill=1;align=left;verticalAlign=bottom;entryX=1;entryY=0.5;entryDx=0;entryDy=0;exitX=0;exitY=0.5;exitDx=0;exitDy=0;rounded=0;" edge="1" parent="WIyWlLk6GJQsqaUBKTNV-1" source="42y34xTDk8OJhlG2N7WC-44" target="42y34xTDk8OJhlG2N7WC-24">
          <mxGeometry x="-0.7143" y="21" relative="1" as="geometry">
            <mxPoint x="870" y="363" as="sourcePoint" />
            <mxPoint x="810" y="465" as="targetPoint" />
            <mxPoint as="offset" />
          </mxGeometry>
        </mxCell>
        <mxCell id="42y34xTDk8OJhlG2N7WC-20" value="1" style="edgeLabel;html=1;align=center;verticalAlign=middle;resizable=0;points=[];" vertex="1" connectable="0" parent="42y34xTDk8OJhlG2N7WC-15">
          <mxGeometry x="0.4103" y="1" relative="1" as="geometry">
            <mxPoint x="-20.04" y="-12" as="offset" />
          </mxGeometry>
        </mxCell>
        <mxCell id="42y34xTDk8OJhlG2N7WC-21" value="from" style="edgeLabel;html=1;align=center;verticalAlign=middle;resizable=0;points=[];" vertex="1" connectable="0" parent="42y34xTDk8OJhlG2N7WC-15">
          <mxGeometry x="0.3761" y="4" relative="1" as="geometry">
            <mxPoint x="26" y="5" as="offset" />
          </mxGeometry>
        </mxCell>
        <mxCell id="42y34xTDk8OJhlG2N7WC-17" value="" style="endArrow=open;html=1;endSize=12;startArrow=diamondThin;startSize=14;startFill=1;align=left;verticalAlign=bottom;entryX=1;entryY=0.077;entryDx=0;entryDy=0;exitX=0;exitY=0.25;exitDx=0;exitDy=0;entryPerimeter=0;rounded=0;" edge="1" parent="WIyWlLk6GJQsqaUBKTNV-1" source="42y34xTDk8OJhlG2N7WC-8" target="42y34xTDk8OJhlG2N7WC-4">
          <mxGeometry x="-0.3333" relative="1" as="geometry">
            <mxPoint x="1000" y="270" as="sourcePoint" />
            <mxPoint x="780" y="341" as="targetPoint" />
            <mxPoint as="offset" />
          </mxGeometry>
        </mxCell>
        <mxCell id="42y34xTDk8OJhlG2N7WC-18" value="1" style="edgeLabel;html=1;align=center;verticalAlign=middle;resizable=0;points=[];" vertex="1" connectable="0" parent="42y34xTDk8OJhlG2N7WC-17">
          <mxGeometry x="0.2222" y="1" relative="1" as="geometry">
            <mxPoint x="-33.99" y="-14" as="offset" />
          </mxGeometry>
        </mxCell>
        <mxCell id="42y34xTDk8OJhlG2N7WC-22" value="to" style="edgeLabel;html=1;align=center;verticalAlign=middle;resizable=0;points=[];" vertex="1" connectable="0" parent="42y34xTDk8OJhlG2N7WC-17">
          <mxGeometry x="0.5315" y="4" relative="1" as="geometry">
            <mxPoint x="37.52" y="-12.559999999999999" as="offset" />
          </mxGeometry>
        </mxCell>
        <mxCell id="42y34xTDk8OJhlG2N7WC-23" value="1" style="edgeLabel;html=1;align=center;verticalAlign=middle;resizable=0;points=[];" vertex="1" connectable="0" parent="42y34xTDk8OJhlG2N7WC-17">
          <mxGeometry x="-0.8112" y="-1" relative="1" as="geometry">
            <mxPoint x="3.13" y="-10.66" as="offset" />
          </mxGeometry>
        </mxCell>
        <mxCell id="42y34xTDk8OJhlG2N7WC-25" value="ElementDecorator" style="swimlane;fontStyle=2;align=center;verticalAlign=top;childLayout=stackLayout;horizontal=1;startSize=26;horizontalStack=0;resizeParent=1;resizeLast=0;collapsible=1;marginBottom=0;rounded=0;shadow=0;strokeWidth=1;" vertex="1" parent="WIyWlLk6GJQsqaUBKTNV-1">
          <mxGeometry x="950" y="261" width="160" height="64" as="geometry">
            <mxRectangle x="550" y="140" width="160" height="26" as="alternateBounds" />
          </mxGeometry>
        </mxCell>
        <mxCell id="42y34xTDk8OJhlG2N7WC-29" value="" style="line;html=1;strokeWidth=1;align=left;verticalAlign=middle;spacingTop=-1;spacingLeft=3;spacingRight=3;rotatable=0;labelPosition=right;points=[];portConstraint=eastwest;" vertex="1" parent="42y34xTDk8OJhlG2N7WC-25">
          <mxGeometry y="26" width="160" height="8" as="geometry" />
        </mxCell>
        <mxCell id="42y34xTDk8OJhlG2N7WC-30" value="+display_element()" style="text;align=left;verticalAlign=top;spacingLeft=4;spacingRight=4;overflow=hidden;rotatable=0;points=[[0,0.5],[1,0.5]];portConstraint=eastwest;rounded=0;shadow=0;html=0;" vertex="1" parent="42y34xTDk8OJhlG2N7WC-25">
          <mxGeometry y="34" width="160" height="26" as="geometry" />
        </mxCell>
        <mxCell id="42y34xTDk8OJhlG2N7WC-33" value="&lt;div&gt;Allowing &lt;b&gt;images &lt;/b&gt;may increase the complexity of the project:&lt;/div&gt;&lt;div&gt;- how to handle &lt;b&gt;different sizes&lt;/b&gt;?&lt;/div&gt;&lt;div&gt;- how to handle varying &lt;b&gt;height/width rations&lt;/b&gt;?&lt;br&gt;&lt;/div&gt;&lt;div&gt;- how to handle &lt;b&gt;lack of images&lt;/b&gt;?&lt;br&gt;&lt;/div&gt;&lt;div&gt;- how to handle &lt;b&gt;copyright&lt;/b&gt;?&lt;br&gt;&lt;/div&gt;" style="shape=note;size=15;align=left;spacingLeft=10;html=1;whiteSpace=wrap;" vertex="1" parent="WIyWlLk6GJQsqaUBKTNV-1">
          <mxGeometry x="790" y="10" width="250" height="120" as="geometry" />
        </mxCell>
        <mxCell id="42y34xTDk8OJhlG2N7WC-34" value="" style="edgeStyle=none;endArrow=none;exitX=0;exitY=0.5;dashed=1;html=1;exitDx=0;exitDy=0;exitPerimeter=0;entryX=1;entryY=0.5;entryDx=0;entryDy=0;" edge="1" source="42y34xTDk8OJhlG2N7WC-33" parent="WIyWlLk6GJQsqaUBKTNV-1" target="zkfFHV4jXpPFQw0GAbJ--22">
          <mxGeometry x="1" relative="1" as="geometry">
            <mxPoint x="870" y="72" as="targetPoint" />
          </mxGeometry>
        </mxCell>
        <mxCell id="42y34xTDk8OJhlG2N7WC-36" value="Operation" style="swimlane;fontStyle=0;align=center;verticalAlign=top;childLayout=stackLayout;horizontal=1;startSize=26;horizontalStack=0;resizeParent=1;resizeLast=0;collapsible=1;marginBottom=0;rounded=0;shadow=0;strokeWidth=1;" vertex="1" parent="WIyWlLk6GJQsqaUBKTNV-1">
          <mxGeometry x="1170" y="200" width="160" height="64" as="geometry">
            <mxRectangle x="550" y="140" width="160" height="26" as="alternateBounds" />
          </mxGeometry>
        </mxCell>
        <mxCell id="42y34xTDk8OJhlG2N7WC-37" value="" style="line;html=1;strokeWidth=1;align=left;verticalAlign=middle;spacingTop=-1;spacingLeft=3;spacingRight=3;rotatable=0;labelPosition=right;points=[];portConstraint=eastwest;" vertex="1" parent="42y34xTDk8OJhlG2N7WC-36">
          <mxGeometry y="26" width="160" height="8" as="geometry" />
        </mxCell>
        <mxCell id="42y34xTDk8OJhlG2N7WC-38" value="+display_element()" style="text;align=left;verticalAlign=top;spacingLeft=4;spacingRight=4;overflow=hidden;rotatable=0;points=[[0,0.5],[1,0.5]];portConstraint=eastwest;rounded=0;shadow=0;html=0;" vertex="1" parent="42y34xTDk8OJhlG2N7WC-36">
          <mxGeometry y="34" width="160" height="26" as="geometry" />
        </mxCell>
        <mxCell id="42y34xTDk8OJhlG2N7WC-40" value="1" style="endArrow=open;html=1;endSize=12;startArrow=diamondThin;startSize=14;startFill=0;align=left;verticalAlign=bottom;entryX=1;entryY=0.5;entryDx=0;entryDy=0;rounded=0;exitX=0;exitY=-0.077;exitDx=0;exitDy=0;exitPerimeter=0;" edge="1" parent="WIyWlLk6GJQsqaUBKTNV-1" source="42y34xTDk8OJhlG2N7WC-30" target="42y34xTDk8OJhlG2N7WC-56">
          <mxGeometry x="-0.8719" y="-10" relative="1" as="geometry">
            <mxPoint x="950" y="272" as="sourcePoint" />
            <mxPoint x="520" y="540" as="targetPoint" />
            <mxPoint as="offset" />
          </mxGeometry>
        </mxCell>
        <mxCell id="42y34xTDk8OJhlG2N7WC-41" value="1" style="edgeLabel;html=1;align=center;verticalAlign=middle;resizable=0;points=[];" vertex="1" connectable="0" parent="42y34xTDk8OJhlG2N7WC-40">
          <mxGeometry x="0.4747" y="1" relative="1" as="geometry">
            <mxPoint x="-5.1" y="-15.1" as="offset" />
          </mxGeometry>
        </mxCell>
        <mxCell id="42y34xTDk8OJhlG2N7WC-50" value="Condition" style="swimlane;fontStyle=0;align=center;verticalAlign=top;childLayout=stackLayout;horizontal=1;startSize=26;horizontalStack=0;resizeParent=1;resizeLast=0;collapsible=1;marginBottom=0;rounded=0;shadow=0;strokeWidth=1;" vertex="1" parent="WIyWlLk6GJQsqaUBKTNV-1">
          <mxGeometry x="1170" y="310" width="160" height="64" as="geometry">
            <mxRectangle x="550" y="140" width="160" height="26" as="alternateBounds" />
          </mxGeometry>
        </mxCell>
        <mxCell id="42y34xTDk8OJhlG2N7WC-51" value="" style="line;html=1;strokeWidth=1;align=left;verticalAlign=middle;spacingTop=-1;spacingLeft=3;spacingRight=3;rotatable=0;labelPosition=right;points=[];portConstraint=eastwest;" vertex="1" parent="42y34xTDk8OJhlG2N7WC-50">
          <mxGeometry y="26" width="160" height="8" as="geometry" />
        </mxCell>
        <mxCell id="42y34xTDk8OJhlG2N7WC-52" value="+display_element()" style="text;align=left;verticalAlign=top;spacingLeft=4;spacingRight=4;overflow=hidden;rotatable=0;points=[[0,0.5],[1,0.5]];portConstraint=eastwest;rounded=0;shadow=0;html=0;" vertex="1" parent="42y34xTDk8OJhlG2N7WC-50">
          <mxGeometry y="34" width="160" height="26" as="geometry" />
        </mxCell>
        <mxCell id="42y34xTDk8OJhlG2N7WC-54" value="" style="endArrow=block;endSize=10;endFill=0;shadow=0;strokeWidth=1;rounded=0;elbow=vertical;entryX=1;entryY=0.5;entryDx=0;entryDy=0;edgeStyle=orthogonalEdgeStyle;" edge="1" parent="WIyWlLk6GJQsqaUBKTNV-1" source="42y34xTDk8OJhlG2N7WC-36" target="42y34xTDk8OJhlG2N7WC-25">
          <mxGeometry width="160" relative="1" as="geometry">
            <mxPoint x="960" y="620" as="sourcePoint" />
            <mxPoint x="900" y="585" as="targetPoint" />
          </mxGeometry>
        </mxCell>
        <mxCell id="42y34xTDk8OJhlG2N7WC-56" value="ScenarioElement" style="swimlane;fontStyle=2;align=center;verticalAlign=top;childLayout=stackLayout;horizontal=1;startSize=26;horizontalStack=0;resizeParent=1;resizeLast=0;collapsible=1;marginBottom=0;rounded=0;shadow=0;strokeWidth=1;" vertex="1" parent="WIyWlLk6GJQsqaUBKTNV-1">
          <mxGeometry x="620" y="250" width="160" height="86" as="geometry">
            <mxRectangle x="550" y="140" width="160" height="26" as="alternateBounds" />
          </mxGeometry>
        </mxCell>
        <mxCell id="42y34xTDk8OJhlG2N7WC-65" value="+title" style="text;align=left;verticalAlign=top;spacingLeft=4;spacingRight=4;overflow=hidden;rotatable=0;points=[[0,0.5],[1,0.5]];portConstraint=eastwest;" vertex="1" parent="42y34xTDk8OJhlG2N7WC-56">
          <mxGeometry y="26" width="160" height="26" as="geometry" />
        </mxCell>
        <mxCell id="42y34xTDk8OJhlG2N7WC-57" value="" style="line;html=1;strokeWidth=1;align=left;verticalAlign=middle;spacingTop=-1;spacingLeft=3;spacingRight=3;rotatable=0;labelPosition=right;points=[];portConstraint=eastwest;" vertex="1" parent="42y34xTDk8OJhlG2N7WC-56">
          <mxGeometry y="52" width="160" height="8" as="geometry" />
        </mxCell>
        <mxCell id="42y34xTDk8OJhlG2N7WC-64" value="+display_element()" style="text;align=left;verticalAlign=top;spacingLeft=4;spacingRight=4;overflow=hidden;rotatable=0;points=[[0,0.5],[1,0.5]];portConstraint=eastwest;rounded=0;shadow=0;html=0;" vertex="1" parent="42y34xTDk8OJhlG2N7WC-56">
          <mxGeometry y="60" width="160" height="26" as="geometry" />
        </mxCell>
        <mxCell id="42y34xTDk8OJhlG2N7WC-60" value="" style="endArrow=block;endSize=10;endFill=0;shadow=0;strokeWidth=1;rounded=0;elbow=vertical;entryX=0.5;entryY=1;entryDx=0;entryDy=0;exitX=0.5;exitY=0;exitDx=0;exitDy=0;" edge="1" parent="WIyWlLk6GJQsqaUBKTNV-1" source="42y34xTDk8OJhlG2N7WC-1" target="42y34xTDk8OJhlG2N7WC-56">
          <mxGeometry width="160" relative="1" as="geometry">
            <mxPoint x="700" y="680" as="sourcePoint" />
            <mxPoint x="700" y="624" as="targetPoint" />
          </mxGeometry>
        </mxCell>
        <mxCell id="42y34xTDk8OJhlG2N7WC-61" value="" style="endArrow=block;endSize=10;endFill=0;shadow=0;strokeWidth=1;rounded=0;elbow=vertical;exitX=0.5;exitY=0;exitDx=0;exitDy=0;edgeStyle=orthogonalEdgeStyle;entryX=0.81;entryY=1.093;entryDx=0;entryDy=0;entryPerimeter=0;" edge="1" parent="WIyWlLk6GJQsqaUBKTNV-1" source="42y34xTDk8OJhlG2N7WC-8" target="42y34xTDk8OJhlG2N7WC-64">
          <mxGeometry width="160" relative="1" as="geometry">
            <mxPoint x="700" y="330" as="sourcePoint" />
            <mxPoint x="740" y="360" as="targetPoint" />
            <Array as="points">
              <mxPoint x="1000" y="390" />
              <mxPoint x="750" y="390" />
            </Array>
          </mxGeometry>
        </mxCell>
        <mxCell id="42y34xTDk8OJhlG2N7WC-63" value="" style="endArrow=block;endSize=10;endFill=0;shadow=0;strokeWidth=1;rounded=0;elbow=vertical;exitX=0;exitY=0.5;exitDx=0;exitDy=0;edgeStyle=orthogonalEdgeStyle;entryX=1;entryY=0.5;entryDx=0;entryDy=0;" edge="1" parent="WIyWlLk6GJQsqaUBKTNV-1" source="42y34xTDk8OJhlG2N7WC-50" target="42y34xTDk8OJhlG2N7WC-30">
          <mxGeometry width="160" relative="1" as="geometry">
            <mxPoint x="1170" y="254.8571428571429" as="sourcePoint" />
            <mxPoint x="1110" y="290" as="targetPoint" />
            <Array as="points">
              <mxPoint x="1140" y="342" />
              <mxPoint x="1140" y="308" />
            </Array>
          </mxGeometry>
        </mxCell>
        <mxCell id="42y34xTDk8OJhlG2N7WC-66" value="&lt;div&gt;&lt;b&gt;Operation: &lt;/b&gt;Always perform action&lt;br&gt;(e.g. change variable value)&lt;br&gt;&lt;/div&gt;&lt;div&gt;&lt;br&gt;&lt;/div&gt;&lt;div&gt;&lt;b&gt;Condition:&lt;/b&gt; Check for something, then perform action &lt;br&gt;(e.g. only display next inject if variable is above given threshold)&lt;br&gt;&lt;/div&gt;&lt;b&gt;&lt;/b&gt;" style="shape=note;size=15;align=left;spacingLeft=10;html=1;whiteSpace=wrap;" vertex="1" parent="WIyWlLk6GJQsqaUBKTNV-1">
          <mxGeometry x="1116" y="20" width="250" height="120" as="geometry" />
        </mxCell>
        <mxCell id="42y34xTDk8OJhlG2N7WC-67" value="" style="edgeStyle=none;endArrow=none;exitX=0.5;exitY=1;dashed=1;html=1;exitDx=0;exitDy=0;exitPerimeter=0;entryX=0.5;entryY=0;entryDx=0;entryDy=0;" edge="1" parent="WIyWlLk6GJQsqaUBKTNV-1" source="42y34xTDk8OJhlG2N7WC-66" target="42y34xTDk8OJhlG2N7WC-25">
          <mxGeometry x="1" relative="1" as="geometry">
            <mxPoint x="780" y="130.9999999999999" as="targetPoint" />
            <mxPoint x="790" y="70" as="sourcePoint" />
          </mxGeometry>
        </mxCell>
        <mxCell id="42y34xTDk8OJhlG2N7WC-68" value="1" style="endArrow=open;html=1;endSize=12;startArrow=diamondThin;startSize=14;startFill=0;align=left;verticalAlign=bottom;entryX=0;entryY=0.5;entryDx=0;entryDy=0;rounded=0;exitX=1;exitY=0.5;exitDx=0;exitDy=0;" edge="1" parent="WIyWlLk6GJQsqaUBKTNV-1" source="zkfFHV4jXpPFQw0GAbJ--1" target="zkfFHV4jXpPFQw0GAbJ--19">
          <mxGeometry x="-0.7786" y="2" relative="1" as="geometry">
            <mxPoint x="950" y="292.99800000000005" as="sourcePoint" />
            <mxPoint x="780" y="293" as="targetPoint" />
            <mxPoint x="1" as="offset" />
          </mxGeometry>
        </mxCell>
        <mxCell id="42y34xTDk8OJhlG2N7WC-69" value="1" style="edgeLabel;html=1;align=center;verticalAlign=middle;resizable=0;points=[];" vertex="1" connectable="0" parent="42y34xTDk8OJhlG2N7WC-68">
          <mxGeometry x="0.4747" y="1" relative="1" as="geometry">
            <mxPoint x="40.29" y="-7.83" as="offset" />
          </mxGeometry>
        </mxCell>
      </root>
    </mxGraphModel>
  </diagram>
</mxfile>
